<svg xmlns="http://www.w3.org/2000/svg" viewBox="0 0 900 620"><rect width="900" height="620" fill="#eef4ff"/><path d="M0 430 C160 360 300 500 450 430 S720 360 900 430 V620 H0Z" fill="#dbeafe"/><rect x="120" y="130" width="660" height="300" rx="34" fill="#fff" stroke="#dce5f2" stroke-width="4"/><path d="M170 285h70l35-90 55 180 48-130 42 70h70l35-95 52 155 50-90h70" fill="none" stroke="#2f6fed" stroke-width="10" stroke-linecap="round" stroke-linejoin="round"/><circle cx="700" cy="170" r="52" fill="#123c7c"/><path d="M720 150c-32 6-47 41-28 65-34-6-54-40-44-73 10-33 45-51 72-38-2 16-2 31 0 46Z" fill="#f8fafc"/><text x="450" y="545" text-anchor="middle" font-family="Arial" font-size="34" font-weight="800" fill="#172033">Few-Shot Sleep Stage Adaptation</text></svg>